<svg width="21" height="25" viewBox="0 0 21 25" fill="none" xmlns="http://www.w3.org/2000/svg">
<path d="M14.8992 8.10173C9.6852 4.64161 12.0447 1.2749 12.0447 1.2749C6.97602 4.19338 5.85396 8.64786 7.09564 14.2799C5.26943 12.7992 5.00489 11.0456 5.0647 8.73312C2.73936 11.2206 2.32123 13.853 2.47483 16.7034C2.62186 19.6329 4.27544 22.2769 6.84505 23.6915C9.41442 25.1058 12.5331 25.0886 15.0873 23.6457C17.6409 22.2028 19.2653 19.5403 19.3796 16.6093C19.5588 12.8846 17.9802 10.1453 14.8995 8.10191L14.8992 8.10173ZM11.4858 22.7791C10.3212 22.7832 9.18197 22.4401 8.21351 21.7933C8.44386 21.8159 8.67422 21.8275 8.90458 21.8275C10.9016 21.8186 12.8141 21.0198 14.2242 19.6058C15.6343 18.1916 16.4278 16.277 16.4311 14.28C16.4311 14.0496 16.4198 13.8192 16.3968 13.5889V13.5886C17.0442 14.5496 17.3915 15.6812 17.3953 16.8398C17.3974 18.4127 16.7748 19.9222 15.6643 21.0359C14.5536 22.1499 13.0459 22.777 11.4729 22.7791H11.4858Z" fill="black"/>
</svg>
