<svg width="31" height="32" viewBox="0 0 31 32" fill="none" xmlns="http://www.w3.org/2000/svg">
<circle cx="15.5" cy="16.5" r="15.5" fill="#FE5F55" fill-opacity="0.75"/>
<path d="M19.936 20.084H18.064V23H16.534V20.084H10.378V18.734L16.426 10.076H18.064V18.662H19.936V20.084ZM16.534 14.612C16.534 14.3 16.534 14.018 16.534 13.766C16.546 13.502 16.558 13.256 16.57 13.028C16.582 12.8 16.588 12.584 16.588 12.38C16.6 12.164 16.612 11.96 16.624 11.768H16.552C16.456 11.996 16.336 12.242 16.192 12.506C16.048 12.77 15.91 12.992 15.778 13.172L11.926 18.662H16.534V14.612Z" fill="white"/>
</svg>
