<svg width="31" height="32" viewBox="0 0 31 32" fill="none" xmlns="http://www.w3.org/2000/svg">
<circle cx="15.5" cy="16.5" r="15.5" fill="#FE5F55" fill-opacity="0.75"/>
<path d="M18.874 13.154C18.874 13.73 18.766 14.228 18.55 14.648C18.334 15.068 18.022 15.41 17.614 15.674C17.218 15.938 16.75 16.124 16.21 16.232V16.304C17.242 16.424 18.01 16.748 18.514 17.276C19.018 17.804 19.27 18.494 19.27 19.346C19.27 20.09 19.096 20.756 18.748 21.344C18.4 21.92 17.86 22.37 17.128 22.694C16.408 23.018 15.478 23.18 14.338 23.18C13.666 23.18 13.042 23.126 12.466 23.018C11.89 22.922 11.338 22.742 10.81 22.478V21.002C11.35 21.266 11.932 21.476 12.556 21.632C13.18 21.776 13.78 21.848 14.356 21.848C15.508 21.848 16.336 21.626 16.84 21.182C17.356 20.726 17.614 20.102 17.614 19.31C17.614 18.77 17.47 18.338 17.182 18.014C16.906 17.678 16.498 17.432 15.958 17.276C15.418 17.12 14.77 17.042 14.014 17.042H12.772V15.692H14.032C14.74 15.692 15.328 15.59 15.796 15.386C16.276 15.182 16.636 14.9 16.876 14.54C17.128 14.168 17.254 13.742 17.254 13.262C17.254 12.638 17.044 12.158 16.624 11.822C16.204 11.474 15.634 11.3 14.914 11.3C14.458 11.3 14.044 11.348 13.672 11.444C13.3 11.528 12.952 11.654 12.628 11.822C12.316 11.978 11.998 12.164 11.674 12.38L10.882 11.3C11.194 11.06 11.548 10.838 11.944 10.634C12.352 10.43 12.802 10.268 13.294 10.148C13.786 10.028 14.32 9.968 14.896 9.968C16.24 9.968 17.236 10.268 17.884 10.868C18.544 11.468 18.874 12.23 18.874 13.154Z" fill="white"/>
</svg>
