<svg width="31" height="32" viewBox="0 0 31 32" fill="none" xmlns="http://www.w3.org/2000/svg">
<circle cx="15.5" cy="16.5" r="15.5" fill="#FE5F55" fill-opacity="0.75"/>
<path d="M14.95 15.116C15.826 15.116 16.588 15.266 17.236 15.566C17.884 15.866 18.382 16.298 18.73 16.862C19.09 17.414 19.27 18.092 19.27 18.896C19.27 19.784 19.078 20.552 18.694 21.2C18.31 21.836 17.758 22.328 17.038 22.676C16.33 23.012 15.472 23.18 14.464 23.18C13.804 23.18 13.18 23.12 12.592 23C12.016 22.88 11.53 22.706 11.134 22.478V20.984C11.566 21.248 12.088 21.458 12.7 21.614C13.324 21.758 13.918 21.83 14.482 21.83C15.118 21.83 15.67 21.734 16.138 21.542C16.618 21.338 16.99 21.032 17.254 20.624C17.518 20.204 17.65 19.682 17.65 19.058C17.65 18.218 17.392 17.576 16.876 17.132C16.36 16.676 15.544 16.448 14.428 16.448C14.092 16.448 13.708 16.478 13.276 16.538C12.844 16.598 12.496 16.658 12.232 16.718L11.44 16.214L11.926 10.148H18.37V11.588H13.276L12.97 15.314C13.174 15.278 13.45 15.236 13.798 15.188C14.146 15.14 14.53 15.116 14.95 15.116Z" fill="white"/>
</svg>
