<svg width="31" height="32" viewBox="0 0 31 32" fill="none" xmlns="http://www.w3.org/2000/svg">
<circle cx="15.5" cy="16.5" r="15.5" fill="#FE5F55" fill-opacity="0.75"/>
<path d="M10.99 17.51C10.99 16.766 11.038 16.034 11.134 15.314C11.242 14.594 11.422 13.916 11.674 13.28C11.926 12.632 12.274 12.062 12.718 11.57C13.162 11.066 13.72 10.676 14.392 10.4C15.076 10.112 15.904 9.968 16.876 9.968C17.128 9.968 17.404 9.98 17.704 10.004C18.016 10.028 18.268 10.07 18.46 10.13V11.48C18.244 11.408 17.998 11.354 17.722 11.318C17.458 11.282 17.188 11.264 16.912 11.264C16.084 11.264 15.394 11.402 14.842 11.678C14.29 11.954 13.852 12.332 13.528 12.812C13.216 13.292 12.988 13.844 12.844 14.468C12.7 15.092 12.61 15.758 12.574 16.466H12.682C12.862 16.178 13.09 15.92 13.366 15.692C13.642 15.464 13.972 15.284 14.356 15.152C14.752 15.02 15.208 14.954 15.724 14.954C16.468 14.954 17.116 15.11 17.668 15.422C18.232 15.722 18.67 16.166 18.982 16.754C19.294 17.33 19.45 18.032 19.45 18.86C19.45 19.748 19.282 20.516 18.946 21.164C18.61 21.812 18.136 22.31 17.524 22.658C16.924 23.006 16.204 23.18 15.364 23.18C14.752 23.18 14.182 23.066 13.654 22.838C13.126 22.61 12.658 22.262 12.25 21.794C11.854 21.326 11.542 20.738 11.314 20.03C11.098 19.31 10.99 18.47 10.99 17.51ZM15.346 21.848C16.102 21.848 16.714 21.608 17.182 21.128C17.65 20.636 17.884 19.88 17.884 18.86C17.884 18.044 17.674 17.396 17.254 16.916C16.846 16.436 16.228 16.196 15.4 16.196C14.836 16.196 14.344 16.316 13.924 16.556C13.504 16.784 13.174 17.078 12.934 17.438C12.706 17.798 12.592 18.17 12.592 18.554C12.592 18.95 12.646 19.34 12.754 19.724C12.874 20.108 13.048 20.462 13.276 20.786C13.516 21.11 13.804 21.368 14.14 21.56C14.488 21.752 14.89 21.848 15.346 21.848Z" fill="white"/>
</svg>
