<svg width="31" height="32" viewBox="0 0 31 32" fill="none" xmlns="http://www.w3.org/2000/svg">
<circle cx="15.5" cy="16.5" r="15.5" fill="#FE5F55" fill-opacity="0.75"/>
<path d="M19.36 23H10.864V21.686L14.23 18.284C14.878 17.636 15.424 17.06 15.868 16.556C16.312 16.052 16.648 15.56 16.876 15.08C17.104 14.588 17.218 14.054 17.218 13.478C17.218 12.77 17.008 12.236 16.588 11.876C16.168 11.504 15.622 11.318 14.95 11.318C14.326 11.318 13.774 11.426 13.294 11.642C12.826 11.858 12.346 12.158 11.854 12.542L11.008 11.48C11.344 11.192 11.71 10.934 12.106 10.706C12.514 10.478 12.952 10.298 13.42 10.166C13.9 10.034 14.41 9.968 14.95 9.968C15.754 9.968 16.444 10.106 17.02 10.382C17.596 10.658 18.04 11.054 18.352 11.57C18.676 12.074 18.838 12.68 18.838 13.388C18.838 13.892 18.76 14.372 18.604 14.828C18.448 15.272 18.226 15.71 17.938 16.142C17.65 16.574 17.302 17.012 16.894 17.456C16.486 17.9 16.036 18.362 15.544 18.842L12.862 21.488V21.56H19.36V23Z" fill="white"/>
</svg>
