<svg width="26" height="14" viewBox="0 0 26 14" fill="none" xmlns="http://www.w3.org/2000/svg">
<g clip-path="url(#clip0_101_938)">
<path d="M4.71447 11.415L12.1811 12.8778C12.2421 12.8778 12.3029 12.8778 12.3336 12.9082C12.7602 12.9082 13.0955 12.573 13.1259 12.1463C13.1259 11.7197 12.7906 11.3844 12.364 11.354L4.71446 11.3542C4.68385 11.3542 4.65345 11.415 4.71446 11.415L4.71447 11.415ZM12.7297 11.9331C12.8211 12.1465 12.7601 12.3902 12.5469 12.5122C12.3334 12.6036 12.0898 12.5426 11.9678 12.3294C11.8764 12.1159 11.9374 11.8723 12.1506 11.7503C12.3944 11.6285 12.6383 11.7199 12.7297 11.9331Z" fill="black"/>
<path d="M11.145 3.36931C11.1754 3.49112 11.3278 3.58275 11.4498 3.58275C11.724 3.55235 12.0289 3.55235 12.3031 3.55235C12.7602 3.55235 13.1868 3.58275 13.6135 3.64376C13.7963 3.67416 13.9792 3.52195 13.9792 3.33891V1.236C13.9792 1.05318 13.8267 0.931152 13.6743 0.931152C12.699 0.961552 11.7238 1.14459 10.8401 1.41882C10.6877 1.47983 10.5963 1.63226 10.6573 1.81508L11.145 3.36931Z" fill="black"/>
<path d="M14.4365 3.79607C15.0766 3.9485 15.7165 4.19233 16.3259 4.46655C16.4784 4.55796 16.6916 4.46655 16.7526 4.28372L17.5755 1.78456C17.6365 1.63214 17.5451 1.44931 17.3927 1.3883C16.4783 1.11407 15.5336 0.931247 14.5585 0.900635C14.3757 0.900635 14.2536 1.02245 14.2536 1.20548V3.4912C14.1928 3.64363 14.2842 3.76565 14.4365 3.79605L14.4365 3.79607Z" fill="black"/>
<path d="M23.2441 6.29517L20.6842 8.15421C20.5623 8.24563 20.5317 8.39805 20.5927 8.55047C20.867 9.03814 21.0804 9.52582 21.2632 10.0439C21.3242 10.1963 21.4766 10.2877 21.6289 10.2267L24.6155 9.25133C24.7679 9.19032 24.8593 9.0379 24.7983 8.85508C24.4934 7.97138 24.0974 7.11783 23.6401 6.35592C23.6099 6.23411 23.3965 6.20371 23.2441 6.29512L23.2441 6.29517Z" fill="black"/>
<path d="M8.46303 4.43605C9.16392 4.1008 9.8954 3.82658 10.6573 3.67415C10.8401 3.64375 10.9621 3.46071 10.9011 3.27789L10.4441 1.8455C10.3831 1.69308 10.2002 1.60167 10.0478 1.66268C9.16413 2.02833 8.31059 2.48559 7.54869 3.0647C7.42688 3.15611 7.39627 3.33893 7.48768 3.49135L8.09714 4.34469C8.15815 4.4665 8.31058 4.49712 8.463 4.4361L8.46303 4.43605Z" fill="black"/>
<path d="M17.7583 1.8761L16.905 4.49704C16.8746 4.61885 16.905 4.77127 17.0268 4.83228C17.5449 5.13713 18.0629 5.50276 18.5202 5.92942C18.642 6.05123 18.8554 6.02083 18.9773 5.89902L20.7145 3.49153C20.8059 3.36972 20.7755 3.15628 20.6535 3.06487C19.8916 2.48578 19.0383 2.02874 18.1543 1.66287C18.0021 1.63226 17.8191 1.72367 17.7583 1.87609L17.7583 1.8761Z" fill="black"/>
<path d="M19.1298 6.50844C19.5261 6.9351 19.8917 7.36177 20.1966 7.84944C20.288 8.00187 20.4708 8.03227 20.6233 7.94086L23.1528 6.11218C23.2746 6.02077 23.3052 5.83794 23.2138 5.68553C22.6653 4.92362 22.0252 4.22273 21.3243 3.61326C21.2025 3.49145 20.9891 3.52185 20.8673 3.67427L19.0692 6.14278C19.0078 6.26459 19.0078 6.41702 19.1298 6.50843L19.1298 6.50844Z" fill="black"/>
<path d="M5.87254 6.38665C6.42101 5.77718 7.06111 5.25908 7.76201 4.83242C7.91444 4.741 7.94484 4.52756 7.85342 4.40576L7.30496 3.67427C7.21355 3.52185 7.00011 3.49145 6.84791 3.61326C6.14701 4.22273 5.5069 4.92363 4.95844 5.68554C4.86703 5.80735 4.89743 6.02079 5.01945 6.1122L5.44611 6.41705C5.59832 6.50846 5.75074 6.47806 5.87255 6.38665L5.87254 6.38665Z" fill="black"/>
<path d="M3.52599 9.2513L3.67841 9.31232C3.83084 9.37333 3.98326 9.28192 4.04406 9.12949C4.37932 8.33717 4.80597 7.60569 5.32407 6.96558C5.44589 6.84377 5.41549 6.63033 5.26306 6.53893L4.92781 6.29509C4.77538 6.20368 4.59256 6.23408 4.50115 6.3865C4.01348 7.1484 3.61744 8.00173 3.34299 8.88565C3.28219 9.03786 3.3736 9.22068 3.52603 9.2513L3.52599 9.2513Z" fill="black"/>
<path d="M21.5375 10.8055C21.6593 11.3235 21.751 11.8723 21.8118 12.4207C21.8118 12.5731 21.9642 12.695 22.1166 12.695H25.2252C25.4081 12.695 25.5301 12.5425 25.5301 12.3901C25.4997 11.4454 25.3777 10.5614 25.1338 9.67772C25.1034 9.4949 24.9204 9.40349 24.7376 9.46429L21.751 10.4396C21.5681 10.5006 21.4767 10.6531 21.5375 10.8055V10.8055Z" fill="black"/>
<path d="M3.61739 12.695C3.76981 12.695 3.92223 12.5732 3.92223 12.4208C3.95263 11.5979 4.19647 10.897 4.47069 10.1047C4.5317 9.95224 4.44029 9.76941 4.28787 9.70841L2.79449 9.22074C2.64207 9.15973 2.45924 9.25114 2.39824 9.43418C2.1848 10.3179 2.06299 11.3847 2.06299 12.3904C2.06299 12.6038 2.1848 12.6952 2.36784 12.6952L3.61739 12.695Z" fill="black"/>
</g>
<defs>
<clipPath id="clip0_101_938">
<rect width="25" height="13.0952" fill="white" transform="translate(0.884033)"/>
</clipPath>
</defs>
</svg>
