<svg width="46" height="41" viewBox="0 0 46 41" fill="none" xmlns="http://www.w3.org/2000/svg">
<path d="M36.2536 1.25854H9.81653C7.62612 1.26099 5.52635 2.08769 3.9777 3.55768C2.42868 5.0273 1.55748 7.01991 1.55493 9.09854V31.0505C1.55751 33.1292 2.42867 35.1218 3.9777 36.5914C5.52635 38.0614 7.62612 38.8881 9.81653 38.8905H36.2536C38.444 38.8881 40.5438 38.0614 42.0925 36.5914C43.6415 35.1218 44.5127 33.1292 44.5152 31.0505V9.09854C44.5126 7.01991 43.6415 5.0273 42.0925 3.55768C40.5438 2.0877 38.444 1.26096 36.2536 1.25854ZM34.6013 31.0505H32.949V32.6185C32.949 33.1789 32.634 33.6965 32.1228 33.9765C31.6116 34.2565 30.9817 34.2565 30.4705 33.9765C29.9593 33.6965 29.6444 33.1789 29.6444 32.6185V31.0505H11.4688C10.8784 31.0505 10.3329 30.7516 10.0378 30.2665C9.74279 29.7814 9.74279 29.1836 10.0378 28.6985C10.3329 28.2134 10.8784 27.9145 11.4688 27.9145H29.6444V26.3465C29.6444 25.7862 29.9593 25.2686 30.4705 24.9886C30.9817 24.7086 31.6117 24.7086 32.1228 24.9886C32.634 25.2686 32.949 25.7862 32.949 26.3465V27.9145H34.6013C35.1918 27.9145 35.7373 28.2134 36.0323 28.6985C36.3274 29.1836 36.3274 29.7814 36.0323 30.2665C35.7373 30.7516 35.1918 31.0505 34.6013 31.0505ZM34.6013 21.6425H23.0351V23.2105C23.0351 23.7709 22.7201 24.2885 22.2089 24.5685C21.6977 24.8485 21.0678 24.8485 20.5566 24.5685C20.0454 24.2885 19.7304 23.7709 19.7304 23.2105V21.6425H11.4688C10.8784 21.6425 10.3329 21.3436 10.0378 20.8585C9.74279 20.3734 9.74279 19.7756 10.0378 19.2905C10.3329 18.8054 10.8784 18.5065 11.4688 18.5065H19.7304V16.9385C19.7304 16.3782 20.0454 15.8606 20.5566 15.5806C21.0678 15.3006 21.6977 15.3006 22.2089 15.5806C22.7201 15.8606 23.0351 16.3782 23.0351 16.9385V18.5065H34.6013C35.1918 18.5065 35.7373 18.8054 36.0323 19.2905C36.3274 19.7756 36.3274 20.3734 36.0323 20.8585C35.7373 21.3436 35.1918 21.6425 34.6013 21.6425ZM34.6013 12.2345H29.6444V13.8025C29.6444 14.3629 29.3294 14.8805 28.8182 15.1605C28.307 15.4405 27.6771 15.4405 27.1659 15.1605C26.6547 14.8805 26.3397 14.3629 26.3397 13.8025V12.2345H11.4688C10.8784 12.2345 10.3329 11.9356 10.0378 11.4505C9.74279 10.9654 9.74279 10.3676 10.0378 9.88254C10.3329 9.39745 10.8784 9.09854 11.4688 9.09854H26.3397V7.53054C26.3397 6.97019 26.6547 6.45257 27.1659 6.17257C27.6771 5.89257 28.307 5.89257 28.8182 6.17257C29.3294 6.45257 29.6444 6.97021 29.6444 7.53054V9.09854H34.6013C35.1918 9.09854 35.7373 9.39744 36.0323 9.88254C36.3274 10.3676 36.3274 10.9654 36.0323 11.4505C35.7373 11.9356 35.1918 12.2345 34.6013 12.2345Z" fill="#5A5290"/>
</svg>
