<svg width="34" height="30" viewBox="0 0 34 30" fill="none" xmlns="http://www.w3.org/2000/svg">
<path d="M31.2504 12.8557H31.2832C31.8483 12.8557 32.3587 13.0957 32.7233 13.4832C33.1 13.8594 33.3333 14.3844 33.3333 14.9656V15.0006V14.9994V15.0331C33.3333 15.6143 33.1 16.1393 32.7233 16.5143C32.3575 16.9018 31.8471 17.1418 31.282 17.1418H31.2479H31.2492H31.0049L29.1322 28.2276C29.0529 28.7258 28.7992 29.1771 28.4188 29.4963L28.4152 29.4988C28.0628 29.81 27.601 30 27.0966 30H6.23428C5.72995 30 5.26815 29.81 4.91329 29.4963L4.91572 29.4988C4.53661 29.182 4.2826 28.7342 4.20115 28.2388L4.19994 28.2263L2.32722 17.1405H2.05014C1.48505 17.1405 0.974639 16.9005 0.610061 16.5131C0.416771 16.3208 0.263131 16.0904 0.158315 15.8357C0.0534993 15.581 -0.000343428 15.3072 1.64823e-06 15.0306V14.9956V14.9631C1.64823e-06 14.3819 0.233331 13.8569 0.610061 13.4819C0.975854 13.0945 1.48626 12.8545 2.05136 12.8545H2.08539H2.08417L31.2504 12.8557ZM7.88946 26.2477C8.02582 26.2381 8.15882 26.1999 8.28026 26.1354C8.40169 26.0709 8.50899 25.9815 8.59553 25.8727L8.59674 25.8714C8.68906 25.766 8.75918 25.642 8.80268 25.5074C8.84618 25.3727 8.86213 25.2303 8.84951 25.089V25.0927L8.32817 18.128C8.31887 17.9877 8.28172 17.851 8.21901 17.726C8.15631 17.6011 8.06938 17.4908 7.96359 17.4018L7.96238 17.4005C7.85986 17.3056 7.73936 17.2334 7.60843 17.1887C7.47751 17.144 7.33901 17.1276 7.20163 17.1405H7.20527C7.06892 17.1501 6.93591 17.1883 6.81448 17.2528C6.69304 17.3173 6.58574 17.4067 6.49921 17.5155L6.49799 17.5168C6.40567 17.6222 6.33555 17.7462 6.29205 17.8808C6.24855 18.0155 6.2326 18.1579 6.24522 18.2992V18.2955L6.76656 25.2602C6.78391 25.5301 6.90345 25.7823 7.09954 25.9627L7.10076 25.9639C7.28837 26.1471 7.53722 26.2491 7.79589 26.2489H7.80925H7.80804L7.88946 26.2477ZM14.5795 25.1777V18.213V18.203C14.5799 18.0641 14.5527 17.9267 14.4996 17.799C14.4465 17.6713 14.3687 17.5562 14.2708 17.4605C14.1775 17.3599 14.0653 17.2799 13.941 17.2253C13.8167 17.1708 13.6829 17.1428 13.5477 17.143H13.5283C13.3933 17.1426 13.2596 17.1706 13.1355 17.2252C13.0114 17.2798 12.8994 17.3598 12.8064 17.4605C12.7086 17.5565 12.6308 17.6719 12.5777 17.7997C12.5247 17.9276 12.4974 18.0652 12.4977 18.2042V25.1889C12.4977 25.4814 12.6156 25.7452 12.8064 25.9314C12.8997 26.032 13.0119 26.112 13.1362 26.1666C13.2605 26.2212 13.3943 26.2492 13.5295 26.2489H13.5489C13.6839 26.2493 13.8176 26.2214 13.9417 26.1668C14.0658 26.1122 14.1778 26.0321 14.2708 25.9314C14.3699 25.8355 14.4489 25.7196 14.5028 25.5911C14.5567 25.4625 14.5845 25.324 14.5843 25.1839V25.1764L14.5795 25.1777ZM20.8295 25.1777V18.213V18.203C20.8299 18.0641 20.8028 17.9267 20.7497 17.799C20.6966 17.6713 20.6187 17.5562 20.5209 17.4605C20.4276 17.3599 20.3154 17.2799 20.191 17.2253C20.0667 17.1708 19.9329 17.1428 19.7978 17.143H19.7783C19.6433 17.1426 19.5097 17.1706 19.3856 17.2252C19.2614 17.2798 19.1494 17.3598 19.0565 17.4605C18.9587 17.5565 18.8809 17.6719 18.8278 17.7997C18.7747 17.9276 18.7475 18.0652 18.7478 18.2042V25.1889C18.7478 25.4814 18.8657 25.7452 19.0565 25.9314C19.1498 26.032 19.262 26.112 19.3863 26.1666C19.5106 26.2212 19.6444 26.2492 19.7796 26.2489H19.799C19.934 26.2493 20.0676 26.2214 20.1918 26.1668C20.3159 26.1122 20.4279 26.0321 20.5209 25.9314C20.62 25.8355 20.6989 25.7196 20.7529 25.5911C20.8068 25.4625 20.8345 25.324 20.8344 25.1839V25.1764L20.8295 25.1777ZM26.5583 25.2602L27.0796 18.2955C27.0914 18.1546 27.075 18.0128 27.0315 17.8787C26.9881 17.7445 26.9184 17.621 26.8268 17.5155L26.8281 17.5168C26.7417 17.4078 26.6347 17.3181 26.5135 17.2532C26.3923 17.1883 26.2595 17.1495 26.1232 17.1393H26.1196C25.9826 17.1272 25.8447 17.144 25.7143 17.1887C25.5839 17.2334 25.4637 17.3051 25.3612 17.3993L25.3625 17.398C25.2565 17.4868 25.1693 17.5969 25.1062 17.7216C25.0431 17.8462 25.0054 17.9828 24.9954 18.123V18.1267L24.4741 25.0915C24.4623 25.2323 24.4787 25.3742 24.5222 25.5083C24.5656 25.6424 24.6353 25.766 24.7269 25.8714L24.7257 25.8702C24.812 25.9791 24.919 26.0688 25.0402 26.1337C25.1614 26.1986 25.2942 26.2374 25.4305 26.2477H25.5277C25.7867 26.2477 26.0359 26.1457 26.2241 25.9627C26.4227 25.7826 26.5444 25.5294 26.5631 25.2577V25.2539L26.5583 25.2602ZM7.74849 4.88605L6.23549 11.7833H4.08692L5.72995 4.40107C5.92803 3.41986 6.44695 2.58864 7.16638 2.00742L7.17489 2.00117C7.89889 1.39729 8.8033 1.06882 9.73544 1.07121H9.78162H9.77919H12.4965V1.06121C12.4965 0.768719 12.6144 0.50498 12.8052 0.318738C12.8986 0.217827 13.0109 0.137526 13.1354 0.0827285C13.26 0.0279307 13.394 -0.000216752 13.5295 1.25676e-06H19.8026C20.087 1.25676e-06 20.3434 0.121246 20.5245 0.317488C20.6223 0.413444 20.7001 0.528859 20.7532 0.656714C20.8062 0.784568 20.8335 0.92219 20.8332 1.06121V1.07121H23.5955C24.5689 1.07121 25.4621 1.42119 26.1621 2.00617L26.1548 1.99992C26.892 2.59167 27.4021 3.43242 27.5949 4.37357L27.5997 4.39982L29.2428 11.782H27.0942L25.5812 4.8848C25.4712 4.41148 25.2123 3.98877 24.8448 3.68235L24.8411 3.6786C24.4834 3.37479 24.0338 3.209 23.5699 3.20987H20.8295V3.21987C20.8299 3.35872 20.8028 3.49619 20.7497 3.62386C20.6966 3.75153 20.6187 3.86671 20.5209 3.96234C20.4276 4.06293 20.3154 4.14294 20.191 4.19752C20.0667 4.2521 19.9329 4.28011 19.7978 4.27982H13.5295C13.3945 4.28023 13.2608 4.25228 13.1367 4.19768C13.0126 4.14309 12.9006 4.06301 12.8076 3.96234C12.7098 3.86638 12.632 3.75097 12.579 3.62311C12.5259 3.49526 12.4987 3.35763 12.4989 3.21862V3.20862H9.75853C9.29355 3.20808 8.84303 3.37477 8.48494 3.67985L8.48858 3.67735C8.12368 3.98132 7.86616 4.40035 7.75578 4.8698L7.75335 4.8848L7.74849 4.88605Z" fill="white"/>
</svg>
