<svg width="25" height="25" viewBox="0 0 25 25" fill="none" xmlns="http://www.w3.org/2000/svg">
<path d="M8.28247 14.8609C8.39692 16.3516 9.53236 17.5125 11.5683 17.65L11.5683 18.75L12.4718 18.75L12.4718 17.6422C14.5801 17.4891 15.8119 16.3203 15.8119 14.6234C15.8119 13.0812 14.8692 12.2859 13.1841 11.8734L12.4718 11.6984L12.4718 8.70313C13.3754 8.80938 13.9506 9.32187 14.0892 10.0312L15.6734 10.0312C15.5589 8.59531 14.3723 7.47187 12.4718 7.35L12.4718 6.25L11.5683 6.25L11.5683 7.37344C9.76878 7.55625 8.54148 8.67969 8.54148 10.2688C8.54148 11.675 9.45405 12.5688 10.9705 12.9359L11.5683 13.0891L11.5683 16.2672C10.6422 16.1219 10.0293 15.5953 9.89076 14.8609L8.28247 14.8609ZM11.5608 11.4766C10.6723 11.2625 10.1904 10.8266 10.1904 10.1703C10.1904 9.43594 10.71 8.88594 11.5683 8.725L11.5683 11.475L11.5608 11.475L11.5608 11.4766ZM12.6029 13.3406C13.6826 13.6 14.181 14.0203 14.181 14.7625C14.181 15.6094 13.5606 16.1906 12.4718 16.2969L12.4718 13.3094L12.6029 13.3406Z" fill="black"/>
<path d="M12.0471 23.4375C9.2514 23.4375 6.5702 22.2852 4.59334 20.234C2.61648 18.1828 1.50589 15.4008 1.50589 12.5C1.50589 9.59919 2.61648 6.8172 4.59334 4.76602C6.5702 2.71484 9.2514 1.5625 12.0471 1.5625C14.8428 1.5625 17.524 2.71484 19.5009 4.76602C21.4777 6.8172 22.5883 9.59919 22.5883 12.5C22.5883 15.4008 21.4777 18.1828 19.5009 20.234C17.524 22.2852 14.8428 23.4375 12.0471 23.4375ZM12.0471 25C15.2422 25 18.3064 23.683 20.5657 21.3388C22.825 18.9946 24.0942 15.8152 24.0942 12.5C24.0942 9.18479 22.825 6.00537 20.5657 3.66116C18.3064 1.31696 15.2422 -5.01007e-07 12.0471 -3.95985e-07C8.85201 -2.90963e-07 5.78778 1.31696 3.52851 3.66117C1.26924 6.00537 2.80421e-07 9.18479 3.81638e-07 12.5C4.82854e-07 15.8152 1.26925 18.9946 3.52852 21.3388C5.78779 23.683 8.85201 25 12.0471 25Z" fill="black"/>
<path d="M12.047 21.0937C9.85042 21.0937 7.74376 20.1883 6.19052 18.5767C4.63727 16.9651 3.76466 14.7792 3.76466 12.5C3.76466 10.2208 4.63727 8.03494 6.19052 6.4233C7.74376 4.81166 9.85042 3.90625 12.047 3.90625C14.2437 3.90625 16.3503 4.81166 17.9036 6.4233C19.4568 8.03494 20.3294 10.2208 20.3294 12.5C20.3294 14.7792 19.4568 16.9651 17.9036 18.5767C16.3503 20.1883 14.2437 21.0937 12.047 21.0937ZM12.047 21.875C13.2336 21.875 14.4085 21.6325 15.5047 21.1614C16.6009 20.6902 17.597 19.9997 18.436 19.1291C19.275 18.2586 19.9405 17.2251 20.3946 16.0877C20.8487 14.9502 21.0824 13.7311 21.0824 12.5C21.0824 11.2689 20.8487 10.0498 20.3946 8.91234C19.9405 7.77491 19.275 6.74142 18.436 5.87087C17.597 5.00032 16.6009 4.30977 15.5047 3.83863C14.4085 3.36749 13.2336 3.125 12.047 3.125C9.65073 3.125 7.35256 4.11272 5.6581 5.87087C3.96365 7.62903 3.01172 10.0136 3.01172 12.5C3.01172 14.9864 3.96365 17.371 5.6581 19.1291C7.35256 20.8873 9.65073 21.875 12.047 21.875Z" fill="black"/>
</svg>
